<svg width="2500" height="2500" viewBox="0 0 2500 2500" fill="none" xmlns="http://www.w3.org/2000/svg">
<path d="M2113.27 1987.67C2113.27 2172.81 1963.4 2316.17 1783.55 2316.17H716.45C536.598 2316.17 386.732 2172.81 386.732 1987.67V512.331C386.732 333.141 536.611 183.82 716.45 183.82H1783.54C1963.39 183.82 2113.25 333.141 2113.25 512.331V1987.67" stroke="white" stroke-width="52.0606" stroke-miterlimit="2.613"/>
<path fill-rule="evenodd" clip-rule="evenodd" d="M1232.01 1856.25L1417.85 1850.29L1411.85 1808.47C1411.85 1808.47 1267.99 1742.79 1267.99 1587.47C1267.99 1587.47 1561.73 1754.72 1741.59 1575.52C1915.44 1396.35 1807.53 1133.52 1771.57 1097.68C1771.57 1097.68 1238.02 584.016 1208.04 500.387L1202.05 494.42C1178.07 584.016 656.516 1115.61 656.516 1115.61C620.551 1145.48 524.627 1414.26 704.479 1593.45C884.317 1766.66 1172.08 1587.47 1172.08 1587.47C1178.07 1742.79 1034.2 1808.47 1034.2 1808.47V1856.25H1232.01ZM704.466 422.75V494.42H872.32V589.995H704.466V661.666H884.304V757.227H560.579V327.175H884.304V422.75H704.466ZM1879.47 1915.98C1855.48 1904.05 1825.52 1892.09 1795.52 1892.09C1771.55 1892.09 1735.59 1904.05 1735.59 1921.96C1735.59 1945.85 1771.55 1957.81 1795.52 1963.79L1831.49 1969.74C1903.43 1987.68 1957.38 2011.57 1957.38 2077.28C1957.38 2113.12 1945.4 2154.91 1903.43 2178.8C1861.49 2208.67 1807.52 2220.63 1759.57 2220.63C1693.6 2220.63 1633.67 2202.69 1579.72 2172.82L1633.67 2089.21C1669.64 2113.12 1705.61 2131.04 1753.56 2131.04C1783.54 2131.04 1819.5 2119.08 1819.5 2095.19C1819.5 2065.32 1765.55 2053.39 1735.57 2047.41C1651.65 2029.47 1597.69 2011.56 1597.69 1939.9C1597.69 1856.26 1675.62 1808.48 1777.52 1808.48C1825.49 1808.48 1891.43 1820.44 1933.42 1838.35L1879.47 1915.98Z" fill="white"/>
</svg>
